<?xml version="1.0" encoding="utf-8"?>
<!-- Generator: Adobe Illustrator 16.0.0, SVG Export Plug-In . SVG Version: 6.00 Build 0)  -->
<!DOCTYPE svg PUBLIC "-//W3C//DTD SVG 1.1//EN" "http://www.w3.org/Graphics/SVG/1.1/DTD/svg11.dtd">
<svg version="1.1" id="Layer_1" xmlns="http://www.w3.org/2000/svg" xmlns:xlink="http://www.w3.org/1999/xlink" x="0px" y="0px"
	 width="268.808px" height="112.585px" viewBox="0 0 268.808 112.585" enable-background="new 0 0 268.808 112.585"
	 xml:space="preserve">
<g>
	<g>
		<path d="M50.189,44.911h-3.17V26.65c0-1.442,0.088-3.208,0.266-5.296h-0.076c-0.304,1.228-0.576,2.107-0.816,2.639l-9.301,20.918
			h-1.557l-9.282-20.766c-0.266-0.607-0.538-1.538-0.816-2.791h-0.076c0.101,1.088,0.152,2.866,0.152,5.334v18.223h-3.075v-27.22
			h4.214l8.352,18.982c0.646,1.456,1.063,2.543,1.253,3.265h0.114c0.544-1.493,0.98-2.607,1.31-3.341l8.523-18.906h3.986V44.911z"/>
		<path d="M58.522,20.538c-0.557,0-1.032-0.189-1.424-0.569c-0.392-0.379-0.588-0.86-0.588-1.442s0.196-1.066,0.588-1.452
			c0.392-0.386,0.867-0.579,1.424-0.579c0.569,0,1.053,0.193,1.452,0.579c0.398,0.386,0.598,0.87,0.598,1.452
			c0,0.557-0.199,1.031-0.598,1.423C59.576,20.342,59.092,20.538,58.522,20.538z M60.041,44.911h-3.113V25.474h3.113V44.911z"/>
		<path d="M79.592,44.019c-1.493,0.898-3.265,1.348-5.315,1.348c-2.771,0-5.008-0.902-6.71-2.705
			c-1.702-1.803-2.553-4.141-2.553-7.014c0-3.202,0.917-5.773,2.752-7.716c1.834-1.942,4.283-2.914,7.346-2.914
			c1.708,0,3.214,0.316,4.518,0.949v3.189c-1.443-1.013-2.987-1.519-4.632-1.519c-1.987,0-3.616,0.711-4.888,2.135
			s-1.908,3.293-1.908,5.609c0,2.278,0.598,4.075,1.794,5.391c1.196,1.316,2.8,1.974,4.812,1.974c1.695,0,3.29-0.563,4.783-1.689
			V44.019z"/>
		<path d="M94.437,28.625c-0.544-0.417-1.329-0.626-2.354-0.626c-1.329,0-2.439,0.626-3.332,1.879
			c-0.892,1.253-1.338,2.961-1.338,5.125v9.909H84.3V25.474h3.113v4.005h0.076c0.443-1.367,1.12-2.433,2.031-3.199
			s1.93-1.148,3.056-1.148c0.81,0,1.43,0.089,1.86,0.266V28.625z"/>
		<path d="M105.427,45.367c-2.873,0-5.167-0.908-6.881-2.724c-1.715-1.815-2.572-4.223-2.572-7.223c0-3.265,0.892-5.814,2.676-7.649
			c1.785-1.835,4.195-2.752,7.232-2.752c2.897,0,5.16,0.892,6.786,2.676c1.626,1.785,2.439,4.259,2.439,7.422
			c0,3.101-0.876,5.584-2.629,7.451C110.726,44.434,108.375,45.367,105.427,45.367z M105.655,27.638c-2,0-3.581,0.68-4.745,2.041
			c-1.165,1.36-1.747,3.236-1.747,5.628c0,2.303,0.588,4.119,1.765,5.448c1.177,1.329,2.752,1.993,4.727,1.993
			c2.012,0,3.559-0.651,4.641-1.955c1.082-1.303,1.623-3.157,1.623-5.562c0-2.43-0.541-4.303-1.623-5.619
			C109.214,28.295,107.667,27.638,105.655,27.638z"/>
		<path d="M118.904,44.209v-3.341c1.696,1.252,3.562,1.879,5.6,1.879c2.733,0,4.1-0.911,4.1-2.733c0-0.519-0.117-0.958-0.351-1.319
			c-0.234-0.36-0.55-0.68-0.949-0.958c-0.398-0.278-0.867-0.528-1.404-0.75c-0.538-0.222-1.117-0.453-1.737-0.693
			c-0.86-0.342-1.617-0.687-2.268-1.035c-0.652-0.348-1.196-0.74-1.632-1.177c-0.437-0.437-0.766-0.933-0.987-1.49
			c-0.222-0.557-0.332-1.208-0.332-1.955c0-0.911,0.208-1.718,0.626-2.42c0.417-0.702,0.974-1.291,1.67-1.765
			c0.696-0.475,1.49-0.832,2.382-1.073c0.893-0.24,1.813-0.36,2.762-0.36c1.683,0,3.189,0.291,4.518,0.873v3.151
			c-1.43-0.936-3.075-1.404-4.935-1.404c-0.583,0-1.108,0.066-1.576,0.199c-0.468,0.133-0.87,0.32-1.206,0.56
			s-0.595,0.528-0.778,0.863c-0.184,0.335-0.275,0.706-0.275,1.111c0,0.506,0.091,0.93,0.275,1.271
			c0.184,0.342,0.453,0.646,0.807,0.911c0.354,0.266,0.784,0.506,1.291,0.722c0.506,0.215,1.082,0.449,1.728,0.702
			c0.86,0.329,1.632,0.667,2.316,1.016c0.683,0.348,1.265,0.74,1.746,1.177s0.851,0.939,1.11,1.509
			c0.259,0.569,0.389,1.247,0.389,2.031c0,0.962-0.212,1.797-0.636,2.506c-0.424,0.708-0.99,1.297-1.699,1.765
			c-0.709,0.468-1.525,0.816-2.449,1.044c-0.924,0.228-1.892,0.342-2.904,0.342C122.106,45.367,120.372,44.98,118.904,44.209z"/>
		<path d="M144.701,45.367c-2.873,0-5.166-0.908-6.881-2.724c-1.715-1.815-2.572-4.223-2.572-7.223c0-3.265,0.893-5.814,2.677-7.649
			s4.194-2.752,7.231-2.752c2.898,0,5.16,0.892,6.786,2.676c1.626,1.785,2.439,4.259,2.439,7.422c0,3.101-0.876,5.584-2.629,7.451
			S147.649,45.367,144.701,45.367z M144.929,27.638c-1.999,0-3.581,0.68-4.745,2.041c-1.165,1.36-1.746,3.236-1.746,5.628
			c0,2.303,0.588,4.119,1.765,5.448c1.177,1.329,2.753,1.993,4.727,1.993c2.013,0,3.56-0.651,4.642-1.955
			c1.082-1.303,1.623-3.157,1.623-5.562c0-2.43-0.541-4.303-1.623-5.619C148.488,28.295,146.941,27.638,144.929,27.638z"/>
		<path d="M168.258,18.868c-0.607-0.341-1.297-0.512-2.069-0.512c-2.177,0-3.265,1.373-3.265,4.119v2.999h4.556v2.657h-4.556v16.78
			h-3.094v-16.78h-3.322v-2.657h3.322v-3.151c0-2.038,0.588-3.648,1.765-4.831c1.178-1.183,2.646-1.775,4.404-1.775
			c0.949,0,1.702,0.114,2.259,0.342V18.868z"/>
		<path d="M180.538,44.721c-0.733,0.405-1.702,0.607-2.903,0.607c-3.404,0-5.106-1.898-5.106-5.694V28.131h-3.341v-2.657h3.341
			v-4.746l3.113-1.006v5.751h4.896v2.657h-4.896v10.953c0,1.304,0.221,2.234,0.664,2.791c0.442,0.557,1.177,0.835,2.202,0.835
			c0.784,0,1.461-0.215,2.03-0.645V44.721z"/>
	</g>
	<g>
		<path d="M22.438,91.887v-27.22h7.745c2.354,0,4.22,0.576,5.6,1.728c1.379,1.151,2.069,2.651,2.069,4.499
			c0,1.544-0.417,2.886-1.253,4.024c-0.835,1.139-1.987,1.949-3.455,2.43v0.076c1.835,0.215,3.303,0.908,4.404,2.078
			s1.651,2.692,1.651,4.564c0,2.329-0.835,4.215-2.505,5.657s-3.777,2.164-6.321,2.164H22.438z M25.627,67.552v8.789h3.265
			c1.747,0,3.119-0.421,4.119-1.263c1-0.841,1.5-2.028,1.5-3.56c0-2.644-1.74-3.967-5.22-3.967H25.627z M25.627,79.207v9.795h4.328
			c1.873,0,3.325-0.442,4.356-1.328c1.031-0.886,1.547-2.101,1.547-3.645c0-3.215-2.189-4.822-6.568-4.822H25.627z"/>
		<path d="M45.899,67.514c-0.557,0-1.032-0.189-1.424-0.569c-0.392-0.379-0.588-0.86-0.588-1.442s0.196-1.066,0.588-1.452
			c0.392-0.386,0.867-0.579,1.424-0.579c0.569,0,1.053,0.193,1.452,0.579c0.398,0.386,0.598,0.87,0.598,1.452
			c0,0.557-0.199,1.031-0.598,1.423C46.953,67.318,46.469,67.514,45.899,67.514z M47.418,91.887h-3.113V72.45h3.113V91.887z"/>
		<path d="M67.273,73.341L55.77,89.23h11.389v2.657H51.195v-0.968l11.503-15.812H52.277V72.45h14.996V73.341z"/>
		<path d="M87.812,67.552h-7.859v24.335h-3.189V67.552h-7.839v-2.885h18.887V67.552z"/>
		<path d="M101.46,91.887h-3.113V88.85h-0.076c-1.354,2.329-3.348,3.493-5.979,3.493c-1.936,0-3.452-0.514-4.546-1.538
			s-1.642-2.386-1.642-4.081c0-3.632,2.138-5.745,6.416-6.34l5.827-0.816c0-3.303-1.335-4.954-4.005-4.954
			c-2.341,0-4.455,0.797-6.34,2.392v-3.189c1.911-1.215,4.113-1.822,6.606-1.822c4.568,0,6.853,2.418,6.853,7.252V91.887z
			 M98.347,82.054L93.658,82.7c-1.442,0.202-2.531,0.56-3.265,1.073c-0.734,0.512-1.101,1.42-1.101,2.723
			c0,0.949,0.338,1.725,1.016,2.326c0.677,0.602,1.578,0.901,2.705,0.901c1.544,0,2.819-0.541,3.825-1.623
			c1.006-1.081,1.509-2.452,1.509-4.109V82.054z"/>
		<path d="M110.438,91.887h-3.113V63.11h3.113V91.887z"/>
		<path d="M132.875,91.887h-4.366l-8.58-9.339h-0.076v9.339h-3.113V63.11h3.113v18.242h0.076l8.163-8.902h4.081l-9.017,9.377
			L132.875,91.887z"/>
		<path d="M145.858,90.787v-3.759c0.43,0.38,0.945,0.722,1.547,1.024c0.601,0.305,1.234,0.561,1.898,0.77s1.332,0.37,2.003,0.484
			c0.67,0.113,1.29,0.17,1.859,0.17c1.962,0,3.427-0.363,4.395-1.091c0.969-0.728,1.452-1.774,1.452-3.142
			c0-0.734-0.161-1.373-0.483-1.918c-0.323-0.543-0.77-1.04-1.339-1.489s-1.243-0.88-2.021-1.291s-1.616-0.845-2.515-1.3
			c-0.949-0.48-1.835-0.969-2.658-1.462c-0.822-0.493-1.537-1.038-2.145-1.632c-0.607-0.596-1.085-1.27-1.434-2.022
			c-0.348-0.753-0.521-1.636-0.521-2.647c0-1.24,0.271-2.319,0.816-3.237c0.544-0.917,1.259-1.673,2.145-2.269
			c0.886-0.594,1.895-1.037,3.027-1.329c1.133-0.291,2.288-0.437,3.465-0.437c2.683,0,4.638,0.323,5.865,0.968v3.587
			c-1.607-1.113-3.67-1.67-6.188-1.67c-0.696,0-1.392,0.073-2.088,0.218s-1.316,0.383-1.86,0.712s-0.986,0.753-1.328,1.271
			c-0.342,0.52-0.513,1.152-0.513,1.898c0,0.696,0.13,1.297,0.389,1.803c0.26,0.507,0.643,0.969,1.148,1.387
			c0.506,0.417,1.123,0.822,1.851,1.215s1.566,0.822,2.516,1.291c0.975,0.48,1.898,0.986,2.771,1.518s1.639,1.12,2.297,1.766
			c0.657,0.646,1.18,1.36,1.565,2.145c0.386,0.785,0.579,1.684,0.579,2.695c0,1.342-0.263,2.478-0.787,3.408
			c-0.525,0.93-1.234,1.686-2.126,2.268c-0.893,0.582-1.921,1.004-3.085,1.263s-2.392,0.39-3.683,0.39
			c-0.431,0-0.962-0.035-1.595-0.105c-0.633-0.069-1.278-0.17-1.936-0.303c-0.658-0.133-1.281-0.297-1.87-0.494
			C146.684,91.246,146.213,91.027,145.858,90.787z"/>
		<path d="M182.987,82.947h-13.725c0.051,2.164,0.633,3.834,1.747,5.012c1.113,1.176,2.645,1.765,4.594,1.765
			c2.188,0,4.201-0.722,6.036-2.164v2.923c-1.709,1.24-3.968,1.861-6.777,1.861c-2.746,0-4.903-0.883-6.473-2.648
			s-2.354-4.248-2.354-7.451c0-3.023,0.857-5.488,2.572-7.393s3.844-2.857,6.388-2.857c2.543,0,4.511,0.823,5.903,2.469
			c1.392,1.645,2.088,3.929,2.088,6.852V82.947z M179.798,80.308c-0.013-1.797-0.446-3.195-1.3-4.195
			c-0.854-0.999-2.041-1.499-3.56-1.499c-1.468,0-2.714,0.524-3.739,1.575s-1.658,2.424-1.898,4.119H179.798z"/>
		<path d="M197.831,75.601c-0.544-0.418-1.328-0.627-2.354-0.627c-1.329,0-2.439,0.627-3.331,1.879
			c-0.893,1.254-1.339,2.961-1.339,5.125v9.909h-3.112V72.45h3.112v4.005h0.076c0.443-1.367,1.12-2.433,2.031-3.198
			s1.93-1.148,3.056-1.148c0.811,0,1.431,0.089,1.86,0.266V75.601z"/>
		<path d="M218.048,72.45l-7.745,19.438h-3.056l-7.365-19.438h3.417l4.936,14.122c0.366,1.038,0.595,1.943,0.683,2.715h0.076
			c0.127-0.975,0.329-1.854,0.607-2.639l5.163-14.198H218.048z"/>
		<path d="M236.783,82.947h-13.725c0.051,2.164,0.633,3.834,1.747,5.012c1.113,1.176,2.645,1.765,4.594,1.765
			c2.188,0,4.201-0.722,6.036-2.164v2.923c-1.709,1.24-3.968,1.861-6.777,1.861c-2.746,0-4.903-0.883-6.473-2.648
			s-2.354-4.248-2.354-7.451c0-3.023,0.857-5.488,2.572-7.393s3.844-2.857,6.388-2.857c2.543,0,4.511,0.823,5.903,2.469
			c1.392,1.645,2.088,3.929,2.088,6.852V82.947z M233.594,80.308c-0.013-1.797-0.446-3.195-1.3-4.195
			c-0.854-0.999-2.041-1.499-3.56-1.499c-1.468,0-2.714,0.524-3.739,1.575s-1.658,2.424-1.898,4.119H233.594z"/>
		<path d="M251.626,75.601c-0.544-0.418-1.328-0.627-2.354-0.627c-1.329,0-2.439,0.627-3.331,1.879
			c-0.893,1.254-1.339,2.961-1.339,5.125v9.909h-3.112V72.45h3.112v4.005h0.076c0.443-1.367,1.12-2.433,2.031-3.198
			s1.93-1.148,3.056-1.148c0.811,0,1.431,0.089,1.86,0.266V75.601z"/>
	</g>
	<g>
		<path d="M185.729,29.945c-0.877,0-1.598-0.272-2.163-0.817c-0.564-0.545-0.847-1.244-0.847-2.097c0-0.835,0.29-1.534,0.871-2.098
			c0.58-0.563,1.304-0.845,2.17-0.845c0.863,0,1.58,0.274,2.148,0.824c0.569,0.549,0.854,1.25,0.854,2.103
			c0,0.835-0.292,1.532-0.875,2.091S186.585,29.945,185.729,29.945z M185.745,24.53c-0.725,0-1.322,0.237-1.793,0.711
			c-0.472,0.474-0.707,1.065-0.707,1.773c0,0.716,0.238,1.31,0.717,1.779c0.478,0.47,1.072,0.705,1.783,0.705
			c0.697,0,1.287-0.236,1.77-0.709c0.481-0.473,0.723-1.062,0.723-1.768c0-0.716-0.237-1.311-0.711-1.783
			S186.459,24.53,185.745,24.53z M186.958,28.682c-0.329,0.179-0.69,0.269-1.083,0.269c-0.55,0-1.006-0.176-1.368-0.529
			s-0.543-0.794-0.543-1.323c0-0.608,0.188-1.096,0.566-1.463s0.87-0.551,1.476-0.551c0.329,0,0.644,0.072,0.944,0.217v0.932
			c-0.259-0.2-0.58-0.3-0.964-0.3c-0.303,0-0.557,0.101-0.761,0.302c-0.204,0.201-0.306,0.472-0.306,0.812
			c0,0.321,0.103,0.581,0.31,0.78c0.207,0.199,0.468,0.298,0.784,0.298c0.371,0,0.686-0.1,0.944-0.3V28.682z"/>
	</g>
</g>
</svg>
